<?xml version="1.0" encoding="utf-8"?>
<!-- Generator: Circuit Diagram, cdlibrary.dll 4.0.0.0 -->
<!DOCTYPE svg PUBLIC "-//W3C//DTD SVG 1.1//EN" "http://www.w3.org/Graphics/SVG/1.1/DTD/svg11.dtd">
<svg version="1.1" width="960" height="580" xmlns="http://www.w3.org/2000/svg">
	<line x1="410" y1="490" x2="460" y2="490" style="stroke:rgb(0, 0, 0);stroke-linecap:square;stroke-width:2" />
	<line x1="430" y1="430" x2="460" y2="430" style="stroke:rgb(0, 0, 0);stroke-linecap:square;stroke-width:2" />
	<line x1="430" y1="430" x2="430" y2="450" style="stroke:rgb(0, 0, 0);stroke-linecap:square;stroke-width:2" />
	<line x1="250" y1="450" x2="430" y2="450" style="stroke:rgb(0, 0, 0);stroke-linecap:square;stroke-width:2" />
	<line x1="410" y1="540" x2="720" y2="540" style="stroke:rgb(0, 0, 0);stroke-linecap:square;stroke-width:2" />
	<line x1="720" y1="440" x2="720" y2="480" style="stroke:rgb(0, 0, 0);stroke-linecap:square;stroke-width:2" />
	<line x1="870" y1="410" x2="870" y2="440" style="stroke:rgb(0, 0, 0);stroke-linecap:square;stroke-width:2" />
	<line x1="840" y1="410" x2="840" y2="440" style="stroke:rgb(0, 0, 0);stroke-linecap:square;stroke-width:2" />
	<line x1="810" y1="410" x2="810" y2="440" style="stroke:rgb(0, 0, 0);stroke-linecap:square;stroke-width:2" />
	<line x1="780" y1="410" x2="780" y2="440" style="stroke:rgb(0, 0, 0);stroke-linecap:square;stroke-width:2" />
	<line x1="750" y1="410" x2="750" y2="440" style="stroke:rgb(0, 0, 0);stroke-linecap:square;stroke-width:2" />
	<line x1="720" y1="410" x2="720" y2="440" style="stroke:rgb(0, 0, 0);stroke-linecap:square;stroke-width:2" />
	<line x1="690" y1="410" x2="690" y2="440" style="stroke:rgb(0, 0, 0);stroke-linecap:square;stroke-width:2" />
	<line x1="660" y1="410" x2="660" y2="440" style="stroke:rgb(0, 0, 0);stroke-linecap:square;stroke-width:2" />
	<line x1="630" y1="410" x2="630" y2="440" style="stroke:rgb(0, 0, 0);stroke-linecap:square;stroke-width:2" />
	<line x1="600" y1="410" x2="600" y2="440" style="stroke:rgb(0, 0, 0);stroke-linecap:square;stroke-width:2" />
	<line x1="570" y1="430" x2="570" y2="440" style="stroke:rgb(0, 0, 0);stroke-linecap:square;stroke-width:2" />
	<line x1="570" y1="410" x2="570" y2="430" style="stroke:rgb(0, 0, 0);stroke-linecap:square;stroke-width:2" />
	<line x1="900" y1="410" x2="900" y2="440" style="stroke:rgb(0, 0, 0);stroke-linecap:square;stroke-width:2" />
	<line x1="540" y1="440" x2="900" y2="440" style="stroke:rgb(0, 0, 0);stroke-linecap:square;stroke-width:2" />
	<line x1="540" y1="410" x2="540" y2="440" style="stroke:rgb(0, 0, 0);stroke-linecap:square;stroke-width:2" />
	<line x1="900" y1="30" x2="900" y2="380" style="stroke:rgb(0, 0, 0);stroke-linecap:square;stroke-width:2" />
	<line x1="30" y1="30" x2="900" y2="30" style="stroke:rgb(0, 0, 0);stroke-linecap:square;stroke-width:2" />
	<line x1="30" y1="30" x2="30" y2="460" style="stroke:rgb(0, 0, 0);stroke-linecap:square;stroke-width:2" />
	<line x1="870" y1="40" x2="870" y2="380" style="stroke:rgb(0, 0, 0);stroke-linecap:square;stroke-width:2" />
	<line x1="40" y1="40" x2="870" y2="40" style="stroke:rgb(0, 0, 0);stroke-linecap:square;stroke-width:2" />
	<line x1="40" y1="40" x2="40" y2="430" style="stroke:rgb(0, 0, 0);stroke-linecap:square;stroke-width:2" />
	<line x1="50" y1="60" x2="50" y2="70" style="stroke:rgb(0, 0, 0);stroke-linecap:square;stroke-width:2" />
	<line x1="840" y1="60" x2="840" y2="380" style="stroke:rgb(0, 0, 0);stroke-linecap:square;stroke-width:2" />
	<line x1="50" y1="60" x2="840" y2="60" style="stroke:rgb(0, 0, 0);stroke-linecap:square;stroke-width:2" />
	<line x1="50" y1="70" x2="50" y2="420" style="stroke:rgb(0, 0, 0);stroke-linecap:square;stroke-width:2" />
	<line x1="810" y1="80" x2="810" y2="380" style="stroke:rgb(0, 0, 0);stroke-linecap:square;stroke-width:2" />
	<line x1="60" y1="80" x2="810" y2="80" style="stroke:rgb(0, 0, 0);stroke-linecap:square;stroke-width:2" />
	<line x1="60" y1="80" x2="60" y2="410" style="stroke:rgb(0, 0, 0);stroke-linecap:square;stroke-width:2" />
	<line x1="780" y1="100" x2="780" y2="380" style="stroke:rgb(0, 0, 0);stroke-linecap:square;stroke-width:2" />
	<line x1="70" y1="100" x2="780" y2="100" style="stroke:rgb(0, 0, 0);stroke-linecap:square;stroke-width:2" />
	<line x1="70" y1="100" x2="70" y2="400" style="stroke:rgb(0, 0, 0);stroke-linecap:square;stroke-width:2" />
	<line x1="750" y1="120" x2="750" y2="390" style="stroke:rgb(0, 0, 0);stroke-linecap:square;stroke-width:2" />
	<line x1="80" y1="120" x2="750" y2="120" style="stroke:rgb(0, 0, 0);stroke-linecap:square;stroke-width:2" />
	<line x1="80" y1="120" x2="80" y2="390" style="stroke:rgb(0, 0, 0);stroke-linecap:square;stroke-width:2" />
	<line x1="720" y1="150" x2="720" y2="380" style="stroke:rgb(0, 0, 0);stroke-linecap:square;stroke-width:2" />
	<line x1="290" y1="150" x2="720" y2="150" style="stroke:rgb(0, 0, 0);stroke-linecap:square;stroke-width:2" />
	<line x1="290" y1="150" x2="290" y2="350" style="stroke:rgb(0, 0, 0);stroke-linecap:square;stroke-width:2" />
	<line x1="690" y1="170" x2="690" y2="380" style="stroke:rgb(0, 0, 0);stroke-linecap:square;stroke-width:2" />
	<line x1="300" y1="170" x2="690" y2="170" style="stroke:rgb(0, 0, 0);stroke-linecap:square;stroke-width:2" />
	<line x1="300" y1="170" x2="300" y2="380" style="stroke:rgb(0, 0, 0);stroke-linecap:square;stroke-width:2" />
	<line x1="660" y1="190" x2="660" y2="380" style="stroke:rgb(0, 0, 0);stroke-linecap:square;stroke-width:2" />
	<line x1="310" y1="190" x2="660" y2="190" style="stroke:rgb(0, 0, 0);stroke-linecap:square;stroke-width:2" />
	<line x1="310" y1="190" x2="310" y2="390" style="stroke:rgb(0, 0, 0);stroke-linecap:square;stroke-width:2" />
	<line x1="630" y1="200" x2="630" y2="380" style="stroke:rgb(0, 0, 0);stroke-linecap:square;stroke-width:2" />
	<line x1="620" y1="200" x2="630" y2="200" style="stroke:rgb(0, 0, 0);stroke-linecap:square;stroke-width:2" />
	<line x1="320" y1="200" x2="620" y2="200" style="stroke:rgb(0, 0, 0);stroke-linecap:square;stroke-width:2" />
	<line x1="320" y1="200" x2="320" y2="400" style="stroke:rgb(0, 0, 0);stroke-linecap:square;stroke-width:2" />
	<line x1="600" y1="210" x2="600" y2="380" style="stroke:rgb(0, 0, 0);stroke-linecap:square;stroke-width:2" />
	<line x1="330" y1="210" x2="600" y2="210" style="stroke:rgb(0, 0, 0);stroke-linecap:square;stroke-width:2" />
	<line x1="330" y1="210" x2="330" y2="420" style="stroke:rgb(0, 0, 0);stroke-linecap:square;stroke-width:2" />
	<line x1="570" y1="220" x2="570" y2="380" style="stroke:rgb(0, 0, 0);stroke-linecap:square;stroke-width:2" />
	<line x1="340" y1="220" x2="570" y2="220" style="stroke:rgb(0, 0, 0);stroke-linecap:square;stroke-width:2" />
	<line x1="340" y1="220" x2="340" y2="430" style="stroke:rgb(0, 0, 0);stroke-linecap:square;stroke-width:2" />
	<line x1="540" y1="370" x2="540" y2="380" style="stroke:rgb(0, 0, 0);stroke-linecap:square;stroke-width:2" />
	<line x1="540" y1="230" x2="540" y2="370" style="stroke:rgb(0, 0, 0);stroke-linecap:square;stroke-width:2" />
	<line x1="350" y1="230" x2="540" y2="230" style="stroke:rgb(0, 0, 0);stroke-linecap:square;stroke-width:2" />
	<line x1="350" y1="230" x2="350" y2="440" style="stroke:rgb(0, 0, 0);stroke-linecap:square;stroke-width:2" />
	<line x1="250" y1="440" x2="350" y2="440" style="stroke:rgb(0, 0, 0);stroke-linecap:square;stroke-width:2" />
	<line x1="30" y1="460" x2="130" y2="460" style="stroke:rgb(0, 0, 0);stroke-linecap:square;stroke-width:2" />
	<line x1="250" y1="430" x2="340" y2="430" style="stroke:rgb(0, 0, 0);stroke-linecap:square;stroke-width:2" />
	<line x1="250" y1="420" x2="330" y2="420" style="stroke:rgb(0, 0, 0);stroke-linecap:square;stroke-width:2" />
	<line x1="250" y1="400" x2="320" y2="400" style="stroke:rgb(0, 0, 0);stroke-linecap:square;stroke-width:2" />
	<line x1="250" y1="390" x2="310" y2="390" style="stroke:rgb(0, 0, 0);stroke-linecap:square;stroke-width:2" />
	<line x1="250" y1="380" x2="300" y2="380" style="stroke:rgb(0, 0, 0);stroke-linecap:square;stroke-width:2" />
	<line x1="250" y1="350" x2="290" y2="350" style="stroke:rgb(0, 0, 0);stroke-linecap:square;stroke-width:2" />
	<line x1="250" y1="340" x2="280" y2="340" style="stroke:rgb(0, 0, 0);stroke-linecap:square;stroke-width:2" />
	<line x1="40" y1="430" x2="50" y2="430" style="stroke:rgb(0, 0, 0);stroke-linecap:square;stroke-width:2" />
	<line x1="50" y1="420" x2="60" y2="420" style="stroke:rgb(0, 0, 0);stroke-linecap:square;stroke-width:2" />
	<line x1="60" y1="410" x2="130" y2="410" style="stroke:rgb(0, 0, 0);stroke-linecap:square;stroke-width:2" />
	<line x1="50" y1="430" x2="60" y2="430" style="stroke:rgb(0, 0, 0);stroke-linecap:square;stroke-width:2" />
	<line x1="60" y1="420" x2="130" y2="420" style="stroke:rgb(0, 0, 0);stroke-linecap:square;stroke-width:2" />
	<line x1="60" y1="430" x2="130" y2="430" style="stroke:rgb(0, 0, 0);stroke-linecap:square;stroke-width:2" />
	<line x1="80" y1="390" x2="130" y2="390" style="stroke:rgb(0, 0, 0);stroke-linecap:square;stroke-width:2" />
	<line x1="70" y1="400" x2="130" y2="400" style="stroke:rgb(0, 0, 0);stroke-linecap:square;stroke-width:2" />
	<line x1="110" y1="500" x2="130" y2="500" style="stroke:rgb(0, 0, 0);stroke-linecap:square;stroke-width:2" />
	<line x1="110" y1="500" x2="110" y2="560" style="stroke:rgb(0, 0, 0);stroke-linecap:square;stroke-width:2" />
	<line x1="110" y1="560" x2="410" y2="560" style="stroke:rgb(0, 0, 0);stroke-linecap:square;stroke-width:2" />
	<line x1="410" y1="260" x2="410" y2="560" style="stroke:rgb(0, 0, 0);stroke-linecap:square;stroke-width:2" />
	<line x1="380" y1="260" x2="380" y2="470" style="stroke:rgb(0, 0, 0);stroke-linecap:square;stroke-width:2" />
	<line x1="250" y1="470" x2="380" y2="470" style="stroke:rgb(0, 0, 0);stroke-linecap:square;stroke-width:2" />
	<line x1="380" y1="260" x2="381" y2="260" style="stroke:rgb(0, 0, 0);stroke-linecap:square;stroke-width:2" />
	<line x1="409" y1="260" x2="410" y2="260" style="stroke:rgb(0, 0, 0);stroke-linecap:square;stroke-width:2" />
	<ellipse cx="384" cy="260" rx="3" ry="3" style="fill-opacity:0;fill:rgb(0, 0, 0);stroke:rgb(0, 0, 0);stroke-width:2" />
	<ellipse cx="406" cy="260" rx="3" ry="3" style="fill-opacity:0;fill:rgb(0, 0, 0);stroke:rgb(0, 0, 0);stroke-width:2" />
	<line x1="383" y1="252" x2="407" y2="252" style="stroke:rgb(0, 0, 0);stroke-linecap:square;stroke-width:2" />
	<line x1="389" y1="246" x2="401" y2="246" style="stroke:rgb(0, 0, 0);stroke-linecap:square;stroke-width:2" />
	<line x1="395" y1="246" x2="395" y2="252" style="stroke:rgb(0, 0, 0);stroke-linecap:square;stroke-width:2" />
	<line x1="460" y1="430" x2="460" y2="440" style="stroke:rgb(0, 0, 0);stroke-linecap:square;stroke-width:2" />
	<line x1="460" y1="480" x2="460" y2="490" style="stroke:rgb(0, 0, 0);stroke-linecap:square;stroke-width:2" />
	<line x1="460" y1="440" x2="460" y2="446" style="stroke:rgb(0, 0, 0);stroke-linecap:square;stroke-width:2" />
	<line x1="460" y1="446" x2="466" y2="446" style="stroke:rgb(0, 0, 0);stroke-linecap:square;stroke-width:2" />
	<line x1="460" y1="474" x2="460" y2="480" style="stroke:rgb(0, 0, 0);stroke-linecap:square;stroke-width:2" />
	<line x1="460" y1="474" x2="466" y2="474" style="stroke:rgb(0, 0, 0);stroke-linecap:square;stroke-width:2" />
	<path d="M 460,460 A 20,20 90 0 1 480,440 L 480,480 A 20,20 90 0 1 460,460 Z" style="fill-opacity:0;fill:rgb(0, 0, 0);stroke:rgb(0, 0, 0);stroke-linecap:square;stroke-width:2" />
	<line x1="900" y1="380" x2="900" y2="410" style="stroke:rgb(0, 0, 0);stroke-linecap:square;stroke-width:2" />
	<path d="M 900,402 M 892,402 L 908,402 M 900,402 L 908,387 L 892,387 L 900,402" style="fill-opacity:0;fill:rgb(0, 0, 0);stroke:rgb(0, 0, 0);stroke-linecap:square;stroke-width:2" />
	<path d="M 900,400 M 911,398 L 919,406 M 920,407 L 918,403 L 916,405 L 920,407 L 918,403" style="fill-opacity:0;fill:rgb(0, 0, 0);stroke:rgb(0, 0, 0);stroke-linecap:square;stroke-width:2" />
	<path d="M 900,400 M 904,404 L 912,412 M 913,413 L 911,409 L 909,411 L 913,413 L 911,409" style="fill-opacity:0;fill:rgb(0, 0, 0);stroke:rgb(0, 0, 0);stroke-linecap:square;stroke-width:2" />
	<line x1="870" y1="380" x2="870" y2="410" style="stroke:rgb(0, 0, 0);stroke-linecap:square;stroke-width:2" />
	<path d="M 870,402 M 862,402 L 878,402 M 870,402 L 878,387 L 862,387 L 870,402" style="fill-opacity:0;fill:rgb(0, 0, 0);stroke:rgb(0, 0, 0);stroke-linecap:square;stroke-width:2" />
	<path d="M 870,400 M 881,398 L 889,406 M 890,407 L 888,403 L 886,405 L 890,407 L 888,403" style="fill-opacity:0;fill:rgb(0, 0, 0);stroke:rgb(0, 0, 0);stroke-linecap:square;stroke-width:2" />
	<path d="M 870,400 M 874,404 L 882,412 M 883,413 L 881,409 L 879,411 L 883,413 L 881,409" style="fill-opacity:0;fill:rgb(0, 0, 0);stroke:rgb(0, 0, 0);stroke-linecap:square;stroke-width:2" />
	<line x1="840" y1="380" x2="840" y2="410" style="stroke:rgb(0, 0, 0);stroke-linecap:square;stroke-width:2" />
	<path d="M 840,402 M 832,402 L 848,402 M 840,402 L 848,387 L 832,387 L 840,402" style="fill-opacity:0;fill:rgb(0, 0, 0);stroke:rgb(0, 0, 0);stroke-linecap:square;stroke-width:2" />
	<path d="M 840,400 M 851,398 L 859,406 M 860,407 L 858,403 L 856,405 L 860,407 L 858,403" style="fill-opacity:0;fill:rgb(0, 0, 0);stroke:rgb(0, 0, 0);stroke-linecap:square;stroke-width:2" />
	<path d="M 840,400 M 844,404 L 852,412 M 853,413 L 851,409 L 849,411 L 853,413 L 851,409" style="fill-opacity:0;fill:rgb(0, 0, 0);stroke:rgb(0, 0, 0);stroke-linecap:square;stroke-width:2" />
	<line x1="810" y1="380" x2="810" y2="410" style="stroke:rgb(0, 0, 0);stroke-linecap:square;stroke-width:2" />
	<path d="M 810,402 M 802,402 L 818,402 M 810,402 L 818,387 L 802,387 L 810,402" style="fill-opacity:0;fill:rgb(0, 0, 0);stroke:rgb(0, 0, 0);stroke-linecap:square;stroke-width:2" />
	<path d="M 810,400 M 821,398 L 829,406 M 830,407 L 828,403 L 826,405 L 830,407 L 828,403" style="fill-opacity:0;fill:rgb(0, 0, 0);stroke:rgb(0, 0, 0);stroke-linecap:square;stroke-width:2" />
	<path d="M 810,400 M 814,404 L 822,412 M 823,413 L 821,409 L 819,411 L 823,413 L 821,409" style="fill-opacity:0;fill:rgb(0, 0, 0);stroke:rgb(0, 0, 0);stroke-linecap:square;stroke-width:2" />
	<line x1="780" y1="380" x2="780" y2="410" style="stroke:rgb(0, 0, 0);stroke-linecap:square;stroke-width:2" />
	<path d="M 780,402 M 772,402 L 788,402 M 780,402 L 788,387 L 772,387 L 780,402" style="fill-opacity:0;fill:rgb(0, 0, 0);stroke:rgb(0, 0, 0);stroke-linecap:square;stroke-width:2" />
	<path d="M 780,400 M 791,398 L 799,406 M 800,407 L 798,403 L 796,405 L 800,407 L 798,403" style="fill-opacity:0;fill:rgb(0, 0, 0);stroke:rgb(0, 0, 0);stroke-linecap:square;stroke-width:2" />
	<path d="M 780,400 M 784,404 L 792,412 M 793,413 L 791,409 L 789,411 L 793,413 L 791,409" style="fill-opacity:0;fill:rgb(0, 0, 0);stroke:rgb(0, 0, 0);stroke-linecap:square;stroke-width:2" />
	<line x1="750" y1="380" x2="750" y2="410" style="stroke:rgb(0, 0, 0);stroke-linecap:square;stroke-width:2" />
	<path d="M 750,402 M 742,402 L 758,402 M 750,402 L 758,387 L 742,387 L 750,402" style="fill-opacity:0;fill:rgb(0, 0, 0);stroke:rgb(0, 0, 0);stroke-linecap:square;stroke-width:2" />
	<path d="M 750,400 M 761,398 L 769,406 M 770,407 L 768,403 L 766,405 L 770,407 L 768,403" style="fill-opacity:0;fill:rgb(0, 0, 0);stroke:rgb(0, 0, 0);stroke-linecap:square;stroke-width:2" />
	<path d="M 750,400 M 754,404 L 762,412 M 763,413 L 761,409 L 759,411 L 763,413 L 761,409" style="fill-opacity:0;fill:rgb(0, 0, 0);stroke:rgb(0, 0, 0);stroke-linecap:square;stroke-width:2" />
	<line x1="720" y1="380" x2="720" y2="410" style="stroke:rgb(0, 0, 0);stroke-linecap:square;stroke-width:2" />
	<path d="M 720,402 M 712,402 L 728,402 M 720,402 L 728,387 L 712,387 L 720,402" style="fill-opacity:0;fill:rgb(0, 0, 0);stroke:rgb(0, 0, 0);stroke-linecap:square;stroke-width:2" />
	<path d="M 720,400 M 731,398 L 739,406 M 740,407 L 738,403 L 736,405 L 740,407 L 738,403" style="fill-opacity:0;fill:rgb(0, 0, 0);stroke:rgb(0, 0, 0);stroke-linecap:square;stroke-width:2" />
	<path d="M 720,400 M 724,404 L 732,412 M 733,413 L 731,409 L 729,411 L 733,413 L 731,409" style="fill-opacity:0;fill:rgb(0, 0, 0);stroke:rgb(0, 0, 0);stroke-linecap:square;stroke-width:2" />
	<line x1="690" y1="380" x2="690" y2="410" style="stroke:rgb(0, 0, 0);stroke-linecap:square;stroke-width:2" />
	<path d="M 690,402 M 682,402 L 698,402 M 690,402 L 698,387 L 682,387 L 690,402" style="fill-opacity:0;fill:rgb(0, 0, 0);stroke:rgb(0, 0, 0);stroke-linecap:square;stroke-width:2" />
	<path d="M 690,400 M 701,398 L 709,406 M 710,407 L 708,403 L 706,405 L 710,407 L 708,403" style="fill-opacity:0;fill:rgb(0, 0, 0);stroke:rgb(0, 0, 0);stroke-linecap:square;stroke-width:2" />
	<path d="M 690,400 M 694,404 L 702,412 M 703,413 L 701,409 L 699,411 L 703,413 L 701,409" style="fill-opacity:0;fill:rgb(0, 0, 0);stroke:rgb(0, 0, 0);stroke-linecap:square;stroke-width:2" />
	<line x1="660" y1="380" x2="660" y2="410" style="stroke:rgb(0, 0, 0);stroke-linecap:square;stroke-width:2" />
	<path d="M 660,402 M 652,402 L 668,402 M 660,402 L 668,387 L 652,387 L 660,402" style="fill-opacity:0;fill:rgb(0, 0, 0);stroke:rgb(0, 0, 0);stroke-linecap:square;stroke-width:2" />
	<path d="M 660,400 M 671,398 L 679,406 M 680,407 L 678,403 L 676,405 L 680,407 L 678,403" style="fill-opacity:0;fill:rgb(0, 0, 0);stroke:rgb(0, 0, 0);stroke-linecap:square;stroke-width:2" />
	<path d="M 660,400 M 664,404 L 672,412 M 673,413 L 671,409 L 669,411 L 673,413 L 671,409" style="fill-opacity:0;fill:rgb(0, 0, 0);stroke:rgb(0, 0, 0);stroke-linecap:square;stroke-width:2" />
	<line x1="630" y1="380" x2="630" y2="410" style="stroke:rgb(0, 0, 0);stroke-linecap:square;stroke-width:2" />
	<path d="M 630,402 M 622,402 L 638,402 M 630,402 L 638,387 L 622,387 L 630,402" style="fill-opacity:0;fill:rgb(0, 0, 0);stroke:rgb(0, 0, 0);stroke-linecap:square;stroke-width:2" />
	<path d="M 630,400 M 641,398 L 649,406 M 650,407 L 648,403 L 646,405 L 650,407 L 648,403" style="fill-opacity:0;fill:rgb(0, 0, 0);stroke:rgb(0, 0, 0);stroke-linecap:square;stroke-width:2" />
	<path d="M 630,400 M 634,404 L 642,412 M 643,413 L 641,409 L 639,411 L 643,413 L 641,409" style="fill-opacity:0;fill:rgb(0, 0, 0);stroke:rgb(0, 0, 0);stroke-linecap:square;stroke-width:2" />
	<line x1="600" y1="380" x2="600" y2="410" style="stroke:rgb(0, 0, 0);stroke-linecap:square;stroke-width:2" />
	<path d="M 600,402 M 592,402 L 608,402 M 600,402 L 608,387 L 592,387 L 600,402" style="fill-opacity:0;fill:rgb(0, 0, 0);stroke:rgb(0, 0, 0);stroke-linecap:square;stroke-width:2" />
	<path d="M 600,400 M 611,398 L 619,406 M 620,407 L 618,403 L 616,405 L 620,407 L 618,403" style="fill-opacity:0;fill:rgb(0, 0, 0);stroke:rgb(0, 0, 0);stroke-linecap:square;stroke-width:2" />
	<path d="M 600,400 M 604,404 L 612,412 M 613,413 L 611,409 L 609,411 L 613,413 L 611,409" style="fill-opacity:0;fill:rgb(0, 0, 0);stroke:rgb(0, 0, 0);stroke-linecap:square;stroke-width:2" />
	<line x1="570" y1="380" x2="570" y2="410" style="stroke:rgb(0, 0, 0);stroke-linecap:square;stroke-width:2" />
	<path d="M 570,402 M 562,402 L 578,402 M 570,402 L 578,387 L 562,387 L 570,402" style="fill-opacity:0;fill:rgb(0, 0, 0);stroke:rgb(0, 0, 0);stroke-linecap:square;stroke-width:2" />
	<path d="M 570,400 M 581,398 L 589,406 M 590,407 L 588,403 L 586,405 L 590,407 L 588,403" style="fill-opacity:0;fill:rgb(0, 0, 0);stroke:rgb(0, 0, 0);stroke-linecap:square;stroke-width:2" />
	<path d="M 570,400 M 574,404 L 582,412 M 583,413 L 581,409 L 579,411 L 583,413 L 581,409" style="fill-opacity:0;fill:rgb(0, 0, 0);stroke:rgb(0, 0, 0);stroke-linecap:square;stroke-width:2" />
	<rect x="140" y="330" width="100" height="190" style="fill-opacity:0;fill:rgb(0, 0, 0);stroke:rgb(0, 0, 0);stroke-width:2" />
	<text x="190" y="320" style="font-family:Arial;font-size:11px;text-anchor:middle" dominant-baseline="middle" transform="rotate(0, 190, 320)">ESP32</text>
	<line x1="130" y1="340" x2="140" y2="340" style="stroke:rgb(0, 0, 0);stroke-linecap:square;stroke-width:2" />
	<text x="144" y="340" style="font-family:Arial;font-size:10px;text-anchor:start" dominant-baseline="middle" transform="rotate(0, 144, 340)">EN</text>
	<text x="136" y="338" style="font-family:Arial;font-size:8px;text-anchor:end" dominant-baseline="baseline" transform="rotate(0, 136, 338)"></text>
	<line x1="240" y1="340" x2="250" y2="340" style="stroke:rgb(0, 0, 0);stroke-linecap:square;stroke-width:2" />
	<text x="236" y="340" style="font-family:Arial;font-size:10px;text-anchor:end" dominant-baseline="middle" transform="rotate(0, 236, 340)">GPIO23</text>
	<text x="244" y="338" style="font-family:Arial;font-size:8px;text-anchor:start" dominant-baseline="baseline" transform="rotate(0, 244, 338)">VSPI MOSI</text>
	<line x1="130" y1="350" x2="140" y2="350" style="stroke:rgb(0, 0, 0);stroke-linecap:square;stroke-width:2" />
	<text x="144" y="350" style="font-family:Arial;font-size:10px;text-anchor:start" dominant-baseline="middle" transform="rotate(0, 144, 350)">GPIO36</text>
	<text x="136" y="348" style="font-family:Arial;font-size:8px;text-anchor:end" dominant-baseline="baseline" transform="rotate(0, 136, 348)">ADC1 CH0</text>
	<line x1="240" y1="350" x2="250" y2="350" style="stroke:rgb(0, 0, 0);stroke-linecap:square;stroke-width:2" />
	<text x="236" y="350" style="font-family:Arial;font-size:10px;text-anchor:end" dominant-baseline="middle" transform="rotate(0, 236, 350)">GPIO22</text>
	<text x="244" y="348" style="font-family:Arial;font-size:8px;text-anchor:start" dominant-baseline="baseline" transform="rotate(0, 244, 348)">I2C SCL</text>
	<line x1="130" y1="360" x2="140" y2="360" style="stroke:rgb(0, 0, 0);stroke-linecap:square;stroke-width:2" />
	<text x="144" y="360" style="font-family:Arial;font-size:10px;text-anchor:start" dominant-baseline="middle" transform="rotate(0, 144, 360)">GPIO39</text>
	<text x="136" y="358" style="font-family:Arial;font-size:8px;text-anchor:end" dominant-baseline="baseline" transform="rotate(0, 136, 358)">ADC1 CH3</text>
	<line x1="240" y1="360" x2="250" y2="360" style="stroke:rgb(0, 0, 0);stroke-linecap:square;stroke-width:2" />
	<text x="236" y="360" style="font-family:Arial;font-size:10px;text-anchor:end" dominant-baseline="middle" transform="rotate(0, 236, 360)">GPIO1</text>
	<text x="244" y="358" style="font-family:Arial;font-size:8px;text-anchor:start" dominant-baseline="baseline" transform="rotate(0, 244, 358)">UART 0 TX</text>
	<line x1="130" y1="370" x2="140" y2="370" style="stroke:rgb(0, 0, 0);stroke-linecap:square;stroke-width:2" />
	<text x="144" y="370" style="font-family:Arial;font-size:10px;text-anchor:start" dominant-baseline="middle" transform="rotate(0, 144, 370)">GPIO34</text>
	<text x="136" y="368" style="font-family:Arial;font-size:8px;text-anchor:end" dominant-baseline="baseline" transform="rotate(0, 136, 368)">ADC1 CH6</text>
	<line x1="240" y1="370" x2="250" y2="370" style="stroke:rgb(0, 0, 0);stroke-linecap:square;stroke-width:2" />
	<text x="236" y="370" style="font-family:Arial;font-size:10px;text-anchor:end" dominant-baseline="middle" transform="rotate(0, 236, 370)">GPIO3</text>
	<text x="244" y="368" style="font-family:Arial;font-size:8px;text-anchor:start" dominant-baseline="baseline" transform="rotate(0, 244, 368)">UART 0 RX</text>
	<line x1="130" y1="380" x2="140" y2="380" style="stroke:rgb(0, 0, 0);stroke-linecap:square;stroke-width:2" />
	<text x="144" y="380" style="font-family:Arial;font-size:10px;text-anchor:start" dominant-baseline="middle" transform="rotate(0, 144, 380)">GPIO35</text>
	<text x="136" y="378" style="font-family:Arial;font-size:8px;text-anchor:end" dominant-baseline="baseline" transform="rotate(0, 136, 378)">ADC1 CH7</text>
	<line x1="240" y1="380" x2="250" y2="380" style="stroke:rgb(0, 0, 0);stroke-linecap:square;stroke-width:2" />
	<text x="236" y="380" style="font-family:Arial;font-size:10px;text-anchor:end" dominant-baseline="middle" transform="rotate(0, 236, 380)">GPIO21</text>
	<text x="244" y="378" style="font-family:Arial;font-size:8px;text-anchor:start" dominant-baseline="baseline" transform="rotate(0, 244, 378)">I2C SDA</text>
	<line x1="130" y1="390" x2="140" y2="390" style="stroke:rgb(0, 0, 0);stroke-linecap:square;stroke-width:2" />
	<text x="144" y="390" style="font-family:Arial;font-size:10px;text-anchor:start" dominant-baseline="middle" transform="rotate(0, 144, 390)">GPIO32</text>
	<text x="136" y="388" style="font-family:Arial;font-size:8px;text-anchor:end" dominant-baseline="baseline" transform="rotate(0, 136, 388)">ADC1 CH4</text>
	<line x1="240" y1="390" x2="250" y2="390" style="stroke:rgb(0, 0, 0);stroke-linecap:square;stroke-width:2" />
	<text x="236" y="390" style="font-family:Arial;font-size:10px;text-anchor:end" dominant-baseline="middle" transform="rotate(0, 236, 390)">GPIO19</text>
	<text x="244" y="388" style="font-family:Arial;font-size:8px;text-anchor:start" dominant-baseline="baseline" transform="rotate(0, 244, 388)">VSPI MISO</text>
	<line x1="130" y1="400" x2="140" y2="400" style="stroke:rgb(0, 0, 0);stroke-linecap:square;stroke-width:2" />
	<text x="144" y="400" style="font-family:Arial;font-size:10px;text-anchor:start" dominant-baseline="middle" transform="rotate(0, 144, 400)">GPIO33</text>
	<text x="136" y="398" style="font-family:Arial;font-size:8px;text-anchor:end" dominant-baseline="baseline" transform="rotate(0, 136, 398)">ADC1 CH5</text>
	<line x1="240" y1="400" x2="250" y2="400" style="stroke:rgb(0, 0, 0);stroke-linecap:square;stroke-width:2" />
	<text x="236" y="400" style="font-family:Arial;font-size:10px;text-anchor:end" dominant-baseline="middle" transform="rotate(0, 236, 400)">GPIO18</text>
	<text x="244" y="398" style="font-family:Arial;font-size:8px;text-anchor:start" dominant-baseline="baseline" transform="rotate(0, 244, 398)">VSPI CLK</text>
	<line x1="130" y1="410" x2="140" y2="410" style="stroke:rgb(0, 0, 0);stroke-linecap:square;stroke-width:2" />
	<text x="144" y="410" style="font-family:Arial;font-size:10px;text-anchor:start" dominant-baseline="middle" transform="rotate(0, 144, 410)">GPIO25</text>
	<text x="136" y="408" style="font-family:Arial;font-size:8px;text-anchor:end" dominant-baseline="baseline" transform="rotate(0, 136, 408)">ADC2 CH8</text>
	<line x1="240" y1="410" x2="250" y2="410" style="stroke:rgb(0, 0, 0);stroke-linecap:square;stroke-width:2" />
	<text x="236" y="410" style="font-family:Arial;font-size:10px;text-anchor:end" dominant-baseline="middle" transform="rotate(0, 236, 410)">GPIO5</text>
	<text x="244" y="408" style="font-family:Arial;font-size:8px;text-anchor:start" dominant-baseline="baseline" transform="rotate(0, 244, 408)">VSPI CS0</text>
	<line x1="130" y1="420" x2="140" y2="420" style="stroke:rgb(0, 0, 0);stroke-linecap:square;stroke-width:2" />
	<text x="144" y="420" style="font-family:Arial;font-size:10px;text-anchor:start" dominant-baseline="middle" transform="rotate(0, 144, 420)">GPIO26</text>
	<text x="136" y="418" style="font-family:Arial;font-size:8px;text-anchor:end" dominant-baseline="baseline" transform="rotate(0, 136, 418)">ADC2 CH9</text>
	<line x1="240" y1="420" x2="250" y2="420" style="stroke:rgb(0, 0, 0);stroke-linecap:square;stroke-width:2" />
	<text x="236" y="420" style="font-family:Arial;font-size:10px;text-anchor:end" dominant-baseline="middle" transform="rotate(0, 236, 420)">GPIO17</text>
	<text x="244" y="418" style="font-family:Arial;font-size:8px;text-anchor:start" dominant-baseline="baseline" transform="rotate(0, 244, 418)">UART 2 TX</text>
	<line x1="130" y1="430" x2="140" y2="430" style="stroke:rgb(0, 0, 0);stroke-linecap:square;stroke-width:2" />
	<text x="144" y="430" style="font-family:Arial;font-size:10px;text-anchor:start" dominant-baseline="middle" transform="rotate(0, 144, 430)">GPIO27</text>
	<text x="136" y="428" style="font-family:Arial;font-size:8px;text-anchor:end" dominant-baseline="baseline" transform="rotate(0, 136, 428)">ADC2 CH7</text>
	<line x1="240" y1="430" x2="250" y2="430" style="stroke:rgb(0, 0, 0);stroke-linecap:square;stroke-width:2" />
	<text x="236" y="430" style="font-family:Arial;font-size:10px;text-anchor:end" dominant-baseline="middle" transform="rotate(0, 236, 430)">GPIO16</text>
	<text x="244" y="428" style="font-family:Arial;font-size:8px;text-anchor:start" dominant-baseline="baseline" transform="rotate(0, 244, 428)">UART 2 RX</text>
	<line x1="130" y1="440" x2="140" y2="440" style="stroke:rgb(0, 0, 0);stroke-linecap:square;stroke-width:2" />
	<text x="144" y="440" style="font-family:Arial;font-size:10px;text-anchor:start" dominant-baseline="middle" transform="rotate(0, 144, 440)">GPIO14</text>
	<text x="136" y="438" style="font-family:Arial;font-size:8px;text-anchor:end" dominant-baseline="baseline" transform="rotate(0, 136, 438)">ADC2 CH6</text>
	<line x1="240" y1="440" x2="250" y2="440" style="stroke:rgb(0, 0, 0);stroke-linecap:square;stroke-width:2" />
	<text x="236" y="440" style="font-family:Arial;font-size:10px;text-anchor:end" dominant-baseline="middle" transform="rotate(0, 236, 440)">GPIO4</text>
	<text x="244" y="438" style="font-family:Arial;font-size:8px;text-anchor:start" dominant-baseline="baseline" transform="rotate(0, 244, 438)">ADC2 CH0</text>
	<line x1="130" y1="450" x2="140" y2="450" style="stroke:rgb(0, 0, 0);stroke-linecap:square;stroke-width:2" />
	<text x="144" y="450" style="font-family:Arial;font-size:10px;text-anchor:start" dominant-baseline="middle" transform="rotate(0, 144, 450)">GPIO12</text>
	<text x="136" y="448" style="font-family:Arial;font-size:8px;text-anchor:end" dominant-baseline="baseline" transform="rotate(0, 136, 448)">ADC2 CH5</text>
	<line x1="240" y1="450" x2="250" y2="450" style="stroke:rgb(0, 0, 0);stroke-linecap:square;stroke-width:2" />
	<text x="236" y="450" style="font-family:Arial;font-size:10px;text-anchor:end" dominant-baseline="middle" transform="rotate(0, 236, 450)">GPIO2</text>
	<text x="244" y="448" style="font-family:Arial;font-size:8px;text-anchor:start" dominant-baseline="baseline" transform="rotate(0, 244, 448)">ADC2 CH2</text>
	<line x1="130" y1="460" x2="140" y2="460" style="stroke:rgb(0, 0, 0);stroke-linecap:square;stroke-width:2" />
	<text x="144" y="460" style="font-family:Arial;font-size:10px;text-anchor:start" dominant-baseline="middle" transform="rotate(0, 144, 460)">GPIO13</text>
	<text x="136" y="458" style="font-family:Arial;font-size:8px;text-anchor:end" dominant-baseline="baseline" transform="rotate(0, 136, 458)">ADC2 CH4</text>
	<line x1="240" y1="460" x2="250" y2="460" style="stroke:rgb(0, 0, 0);stroke-linecap:square;stroke-width:2" />
	<text x="236" y="460" style="font-family:Arial;font-size:10px;text-anchor:end" dominant-baseline="middle" transform="rotate(0, 236, 460)">GPIO15</text>
	<text x="244" y="458" style="font-family:Arial;font-size:8px;text-anchor:start" dominant-baseline="baseline" transform="rotate(0, 244, 458)">ADC2 CH3</text>
	<line x1="130" y1="470" x2="140" y2="470" style="stroke:rgb(0, 0, 0);stroke-linecap:square;stroke-width:2" />
	<text x="144" y="470" style="font-family:Arial;font-size:10px;text-anchor:start" dominant-baseline="middle" transform="rotate(0, 144, 470)">GPIO9</text>
	<text x="136" y="468" style="font-family:Arial;font-size:8px;text-anchor:end" dominant-baseline="baseline" transform="rotate(0, 136, 468)">SHD/SD2</text>
	<line x1="240" y1="470" x2="250" y2="470" style="stroke:rgb(0, 0, 0);stroke-linecap:square;stroke-width:2" />
	<text x="236" y="470" style="font-family:Arial;font-size:10px;text-anchor:end" dominant-baseline="middle" transform="rotate(0, 236, 470)">GPIO0</text>
	<text x="244" y="468" style="font-family:Arial;font-size:8px;text-anchor:start" dominant-baseline="baseline" transform="rotate(0, 244, 468)">ADC2 CH1</text>
	<line x1="130" y1="480" x2="140" y2="480" style="stroke:rgb(0, 0, 0);stroke-linecap:square;stroke-width:2" />
	<text x="144" y="480" style="font-family:Arial;font-size:10px;text-anchor:start" dominant-baseline="middle" transform="rotate(0, 144, 480)">GPIO10</text>
	<text x="136" y="478" style="font-family:Arial;font-size:8px;text-anchor:end" dominant-baseline="baseline" transform="rotate(0, 136, 478)">SWP/SD3</text>
	<line x1="240" y1="480" x2="250" y2="480" style="stroke:rgb(0, 0, 0);stroke-linecap:square;stroke-width:2" />
	<text x="236" y="480" style="font-family:Arial;font-size:10px;text-anchor:end" dominant-baseline="middle" transform="rotate(0, 236, 480)">GPIO8</text>
	<text x="244" y="478" style="font-family:Arial;font-size:8px;text-anchor:start" dominant-baseline="baseline" transform="rotate(0, 244, 478)">SDI/SD1</text>
	<line x1="130" y1="490" x2="140" y2="490" style="stroke:rgb(0, 0, 0);stroke-linecap:square;stroke-width:2" />
	<text x="144" y="490" style="font-family:Arial;font-size:10px;text-anchor:start" dominant-baseline="middle" transform="rotate(0, 144, 490)">GPIO11</text>
	<text x="136" y="488" style="font-family:Arial;font-size:8px;text-anchor:end" dominant-baseline="baseline" transform="rotate(0, 136, 488)">CSC/CMD</text>
	<line x1="240" y1="490" x2="250" y2="490" style="stroke:rgb(0, 0, 0);stroke-linecap:square;stroke-width:2" />
	<text x="236" y="490" style="font-family:Arial;font-size:10px;text-anchor:end" dominant-baseline="middle" transform="rotate(0, 236, 490)">GPIO7</text>
	<text x="244" y="488" style="font-family:Arial;font-size:8px;text-anchor:start" dominant-baseline="baseline" transform="rotate(0, 244, 488)">SDO/SD0</text>
	<line x1="130" y1="500" x2="140" y2="500" style="stroke:rgb(0, 0, 0);stroke-linecap:square;stroke-width:2" />
	<text x="144" y="500" style="font-family:Arial;font-size:10px;text-anchor:start" dominant-baseline="middle" transform="rotate(0, 144, 500)">GND</text>
	<text x="136" y="498" style="font-family:Arial;font-size:8px;text-anchor:end" dominant-baseline="baseline" transform="rotate(0, 136, 498)"></text>
	<line x1="240" y1="500" x2="250" y2="500" style="stroke:rgb(0, 0, 0);stroke-linecap:square;stroke-width:2" />
	<text x="236" y="500" style="font-family:Arial;font-size:10px;text-anchor:end" dominant-baseline="middle" transform="rotate(0, 236, 500)">GPIO6</text>
	<text x="244" y="498" style="font-family:Arial;font-size:8px;text-anchor:start" dominant-baseline="baseline" transform="rotate(0, 244, 498)">SCK/CLK</text>
	<line x1="130" y1="510" x2="140" y2="510" style="stroke:rgb(0, 0, 0);stroke-linecap:square;stroke-width:2" />
	<text x="144" y="510" style="font-family:Arial;font-size:10px;text-anchor:start" dominant-baseline="middle" transform="rotate(0, 144, 510)">VIN</text>
	<text x="136" y="508" style="font-family:Arial;font-size:8px;text-anchor:end" dominant-baseline="baseline" transform="rotate(0, 136, 508)"></text>
	<line x1="240" y1="510" x2="250" y2="510" style="stroke:rgb(0, 0, 0);stroke-linecap:square;stroke-width:2" />
	<text x="236" y="510" style="font-family:Arial;font-size:10px;text-anchor:end" dominant-baseline="middle" transform="rotate(0, 236, 510)">3V3</text>
	<text x="244" y="508" style="font-family:Arial;font-size:8px;text-anchor:start" dominant-baseline="baseline" transform="rotate(0, 244, 508)"></text>
	<line x1="720" y1="480" x2="720" y2="490" style="stroke:rgb(0, 0, 0);stroke-linecap:square;stroke-width:2" />
	<line x1="720" y1="530" x2="720" y2="540" style="stroke:rgb(0, 0, 0);stroke-linecap:square;stroke-width:2" />
	<rect x="712" y="490" width="16" height="40" style="fill-opacity:0;fill:rgb(0, 0, 0);stroke:rgb(0, 0, 0);stroke-width:2" />
	<text x="706" y="510" style="font-family:Arial;font-size:11px;text-anchor:end" dominant-baseline="middle" transform="rotate(0, 706, 510)">100 Ω</text>
	<line x1="540" y1="380" x2="540" y2="410" style="stroke:rgb(0, 0, 0);stroke-linecap:square;stroke-width:2" />
	<path d="M 540,402 M 532,402 L 548,402 M 540,402 L 548,387 L 532,387 L 540,402" style="fill-opacity:0;fill:rgb(0, 0, 0);stroke:rgb(0, 0, 0);stroke-linecap:square;stroke-width:2" />
	<path d="M 540,400 M 551,398 L 559,406 M 560,407 L 558,403 L 556,405 L 560,407 L 558,403" style="fill-opacity:0;fill:rgb(0, 0, 0);stroke:rgb(0, 0, 0);stroke-linecap:square;stroke-width:2" />
	<path d="M 540,400 M 544,404 L 552,412 M 553,413 L 551,409 L 549,411 L 553,413 L 551,409" style="fill-opacity:0;fill:rgb(0, 0, 0);stroke:rgb(0, 0, 0);stroke-linecap:square;stroke-width:2" />
	<ellipse cx="410" cy="490" rx="2" ry="2" style="fill-opacity:1;fill:rgb(0, 0, 0);stroke:rgb(0, 0, 0);stroke-width:2" />
	<ellipse cx="410" cy="540" rx="2" ry="2" style="fill-opacity:1;fill:rgb(0, 0, 0);stroke:rgb(0, 0, 0);stroke-width:2" />
	<ellipse cx="720" cy="440" rx="2" ry="2" style="fill-opacity:1;fill:rgb(0, 0, 0);stroke:rgb(0, 0, 0);stroke-width:2" />
	<ellipse cx="870" cy="440" rx="2" ry="2" style="fill-opacity:1;fill:rgb(0, 0, 0);stroke:rgb(0, 0, 0);stroke-width:2" />
	<ellipse cx="840" cy="440" rx="2" ry="2" style="fill-opacity:1;fill:rgb(0, 0, 0);stroke:rgb(0, 0, 0);stroke-width:2" />
	<ellipse cx="810" cy="440" rx="2" ry="2" style="fill-opacity:1;fill:rgb(0, 0, 0);stroke:rgb(0, 0, 0);stroke-width:2" />
	<ellipse cx="780" cy="440" rx="2" ry="2" style="fill-opacity:1;fill:rgb(0, 0, 0);stroke:rgb(0, 0, 0);stroke-width:2" />
	<ellipse cx="750" cy="440" rx="2" ry="2" style="fill-opacity:1;fill:rgb(0, 0, 0);stroke:rgb(0, 0, 0);stroke-width:2" />
	<ellipse cx="690" cy="440" rx="2" ry="2" style="fill-opacity:1;fill:rgb(0, 0, 0);stroke:rgb(0, 0, 0);stroke-width:2" />
	<ellipse cx="660" cy="440" rx="2" ry="2" style="fill-opacity:1;fill:rgb(0, 0, 0);stroke:rgb(0, 0, 0);stroke-width:2" />
	<ellipse cx="630" cy="440" rx="2" ry="2" style="fill-opacity:1;fill:rgb(0, 0, 0);stroke:rgb(0, 0, 0);stroke-width:2" />
	<ellipse cx="600" cy="440" rx="2" ry="2" style="fill-opacity:1;fill:rgb(0, 0, 0);stroke:rgb(0, 0, 0);stroke-width:2" />
	<ellipse cx="570" cy="440" rx="2" ry="2" style="fill-opacity:1;fill:rgb(0, 0, 0);stroke:rgb(0, 0, 0);stroke-width:2" />
	<ellipse cx="410" cy="260" rx="2" ry="2" style="fill-opacity:1;fill:rgb(0, 0, 0);stroke:rgb(0, 0, 0);stroke-width:2" />
	<ellipse cx="380" cy="260" rx="2" ry="2" style="fill-opacity:1;fill:rgb(0, 0, 0);stroke:rgb(0, 0, 0);stroke-width:2" />
</svg>